#!OML:ASF H:\Dans Jumps\Project 1\Capture day 1\Session 1\subject.ASF
:FULLY-SPECIFIED
:DEGREES
288
root 0.17917 22.1825 -11.3208 10.807 2.67657 1.09254
lowerback 7.13073 0.795464 -1.35512
upperback 3.68945 0.991746 1.88847
thorax -0.246771 0.463459 2.63443
lowerneck -7.41196 -0.973221 -3.35615
upperneck 28.9658 -0.755303 0.17122
head 10.4883 -0.65778 0.565094
rclavicle -5.96354e-016 -1.27222e-014
rhumerus 1.70229 5.01505 -82.9369
rradius 63.8058
rwrist 11.2987
rhand -24.2914 -17.5174
rfingers 7.12502
rthumb 2.19588 -47.4858
lclavicle -5.96354e-016 -1.27222e-014
lhumerus 7.1733 -25.3686 81.7438
lradius 83.4303
lwrist 41.3129
lhand -25.0783 -14.9909
lfingers 7.12502
lthumb 1.4359 14.984
rfemur -23.4104 -7.68499 17.6203
rtibia 38.689
rfoot 16.266 -5.2688
rtoes 18.8565
lfemur -22.9467 7.62986 -19.2023
ltibia 32.2309
lfoot 25.3272 -2.71916
ltoes 3.43345
289
root 0.177829 22.4006 -11.2893 10.126 2.65936 1.14781
lowerback 7.89666 0.780055 -1.57329
upperback 3.90508 0.951262 1.964
thorax -0.448787 0.440046 2.83236
lowerneck -7.42675 -0.906891 -3.31624
upperneck 28.9098 -0.661722 0.140352
head 10.4679 -0.614261 0.557234
rclavicle 5.36719e-015 -3.18055e-015
rhumerus 2.62371 5.41565 -82.891
rradius 64.1046
rwrist 11.2118
rhand -24.353 -17.5629
rfingers 7.12502
rthumb 2.13648 -47.532
lclavicle 5.36719e-015 -3.18055e-015
lhumerus 8.03171 -25.3 81.5333
lradius 83.359
lwrist 40.8829
lhand -25.382 -14.965
lfingers 7.12502
lthumb 1.14267 15.0117
rfemur -23.6418 -7.95551 17.6096
rtibia 40.2682
rfoot 15.9368 -4.67779
rtoes 18.507
lfemur -23.0689 7.88732 -19.3306
ltibia 33.8985
lfoot 24.9418 -2.39772
ltoes 3.43012
290
root 0.174979 22.6078 -11.2553 9.38706 2.70658 1.20084
lowerback 8.68685 0.744885 -1.808
upperback 4.15611 0.880276 2.05552
thorax -0.623808 0.400414 3.06063
lowerneck -7.44231 -0.845661 -3.30077
upperneck 28.839 -0.575398 0.124721
head 10.4425 -0.574851 0.558203
rclavicle 5.76476e-015 -9.54166e-015
rhumerus 3.56688 5.79346 -82.8426
rradius 64.2246
rwrist 11.3127
rhand -24.4399 -17.6282
rfingers 7.12502
rthumb 2.05247 -47.5981
lclavicle 5.76476e-015 -9.54166e-015
lhumerus 8.83018 -25.2255 81.3451
lradius 83.0927
lwrist 40.4853
lhand -25.7774 -14.9893
lfingers 7.12502
lthumb 0.760745 14.9891
rfemur -23.7373 -8.23838 17.5927
rtibia 41.6546
rfoot 15.5293 -4.19556
rtoes 17.9547
lfemur -23.1283 8.12642 -19.4328
ltibia 35.556
lfoot 24.5636 -1.84625
ltoes 3.63121
291
root 0.171431 22.8046 -11.2167 8.65785 2.80604 1.23682
lowerback 9.42527 0.697377 -2.02527
upperback 4.40701 0.792206 2.15646
thorax -0.766453 0.351887 3.29317
lowerneck -7.43203 -0.795083 -3.30519
upperneck 28.785 -0.504194 0.119669
head 10.419 -0.543332 0.564817
rclavicle 1.78906e-015 -1.51076e-014
rhumerus 4.46992 6.1233 -82.8019
rradius 64.1933
rwrist 11.5722
rhand -24.5066 -17.677
rfingers 7.12502
rthumb 1.98805 -47.6475
lclavicle 1.78906e-015 -1.51076e-014
lhumerus 9.54244 -25.1689 81.1855
lradius 82.6597
lwrist 40.258
lhand -26.1675 -15.0337
lfingers 7.12502
lthumb 0.383999 14.9457
rfemur -23.7624 -8.51883 17.589
rtibia 42.8235
rfoot 15.1073 -3.80338
rtoes 17.3252
lfemur -23.1893 8.33518 -19.4995
ltibia 37.1716
lfoot 24.2022 -1.14668
ltoes 3.96639
292
root 0.167377 22.9913 -11.1732 8.00878 2.94212 1.24438
lowerback 10.0271 0.648581 -2.2001
upperback 4.64697 0.705675 2.25747
thorax -0.842671 0.303665 3.50451
lowerneck -7.37635 -0.766073 -3.34139
upperneck 28.7249 -0.469875 0.153312
head 10.3851 -0.527461 0.586781
rclavicle -1.23246e-014 9.54166e-015
rhumerus 5.33819 6.36755 -82.7806
rradius 64.0283
rwrist 11.9074
rhand -24.5217 -17.6926
rfingers 7.12502
rthumb 1.97349 -47.6632
lclavicle -1.23246e-014 9.54166e-015
lhumerus 10.2151 -25.1525 81.0349
lradius 82.071
lwrist 40.2747
lhand -26.4712 -15.0805
lfingers 7.12502
lthumb 0.0906219 14.8992
rfemur -23.798 -8.7719 17.6208
rtibia 43.7601
rfoot 14.72 -3.48519
rtoes 16.7121
lfemur -23.3231 8.50355 -19.526
ltibia 38.7029
lfoot 23.8865 -0.409657
ltoes 4.3802
